<?xml version="1.0" encoding="UTF-8" standalone="no"?>
<!-- Generator: Adobe Illustrator 13.0.0, SVG Export Plug-In . SVG Version: 6.00 Build 14948)  -->

<svg
   xmlns:dc="http://purl.org/dc/elements/1.1/"
   xmlns:cc="http://creativecommons.org/ns#"
   xmlns:rdf="http://www.w3.org/1999/02/22-rdf-syntax-ns#"
   xmlns:svg="http://www.w3.org/2000/svg"
   xmlns="http://www.w3.org/2000/svg"
   xmlns:sodipodi="http://sodipodi.sourceforge.net/DTD/sodipodi-0.dtd"
   xmlns:inkscape="http://www.inkscape.org/namespaces/inkscape"
   version="1.1"
   x="0px"
   y="0px"
   width="600px"
   height="600px"
   viewBox="0 0 600 600"
   enable-background="new 0 0 600 600"
   xml:space="preserve"
   id="svg2"
   inkscape:version="0.48.2 r9819"
   sodipodi:docname="SI_base_unit v02.svg"><metadata
   id="metadata130"><rdf:RDF><cc:Work
       rdf:about=""><dc:format>image/svg+xml</dc:format><dc:type
         rdf:resource="http://purl.org/dc/dcmitype/StillImage" /></cc:Work></rdf:RDF></metadata><defs
   id="defs128" /><sodipodi:namedview
   pagecolor="#ffffff"
   bordercolor="#666666"
   borderopacity="1"
   objecttolerance="10"
   gridtolerance="10"
   guidetolerance="10"
   inkscape:pageopacity="0"
   inkscape:pageshadow="2"
   inkscape:window-width="640"
   inkscape:window-height="480"
   id="namedview126"
   showgrid="false"
   inkscape:zoom="0.39333333"
   inkscape:cx="300"
   inkscape:cy="300"
   inkscape:window-x="0"
   inkscape:window-y="0"
   inkscape:window-maximized="0"
   inkscape:current-layer="svg2" />
<g
   id="Layer_2_1_">
	<g
   id="g5">
		<path
   title="kelvin, K"
   fill="#EBAC6D"
   d="M299.503,147.578c-31.008,0-56.229-25.224-56.229-56.227s25.226-56.228,56.229-56.228    c31.001,0,56.226,25.226,56.226,56.229S330.506,147.578,299.503,147.578L299.503,147.578z"
   id="path7" />
		<path
   fill="#FFFFFF"
   d="M299.503,39.124c28.841,0,52.226,23.383,52.226,52.228c0,28.844-23.385,52.226-52.226,52.226    c-28.85,0-52.229-23.383-52.229-52.227C247.275,62.506,270.656,39.124,299.503,39.124 M299.503,31.124    c-33.209,0-60.229,27.019-60.229,60.228c0,33.208,27.021,60.227,60.229,60.227c33.208,0,60.226-27.018,60.226-60.227    C359.728,58.142,332.711,31.124,299.503,31.124L299.503,31.124z"
   id="path9" />
		<text
   title="kelvin, K"
   transform="matrix(1 0 0 1 279.9934 109.6077)"
   fill="#FFFFFF"
   font-family="'DejaVu Sans'"
   font-size="51.2"
   id="text11">K</text>

	</g>
	<g
   id="g13">
		<path
   title="ampere, A"
   fill="#8F73C9"
   d="M128.286,230.031c-31.008,0-56.229-25.224-56.229-56.229c0-31.002,25.225-56.226,56.229-56.226    c31.002,0,56.227,25.224,56.227,56.226C184.512,204.809,159.288,230.031,128.286,230.031L128.286,230.031z"
   id="path15" />
		<path
   fill="#FFFFFF"
   d="M128.286,121.577c28.845,0,52.228,23.383,52.228,52.227s-23.383,52.227-52.228,52.227    c-28.848,0-52.229-23.383-52.229-52.227C76.06,144.96,99.441,121.577,128.286,121.577 M128.286,113.577    c-33.208,0-60.229,27.018-60.229,60.227s27.021,60.227,60.229,60.227s60.228-27.018,60.228-60.227    S161.495,113.577,128.286,113.577L128.286,113.577z"
   id="path17" />
		<text
   title="ampere, A"
   transform="matrix(1 0 0 1 109.7 192.0598)"
   fill="#FFFFFF"
   font-family="'DejaVu Sans'"
   font-size="51.2"
   id="text19">A</text>

	</g>
	<g
   id="g21">
		<path
   title="second, s"
   fill="#9AD96D"
   d="M470.717,230.031c-31.004,0-56.229-25.224-56.229-56.228c0-31.002,25.229-56.228,56.229-56.228    c31.006,0,56.229,25.226,56.229,56.228C526.946,204.81,501.722,230.031,470.717,230.031L470.717,230.031z"
   id="path23" />
		<path
   fill="#FFFFFF"
   d="M470.717,121.577c28.844,0,52.229,23.383,52.229,52.227c0,28.846-23.385,52.227-52.229,52.227    s-52.229-23.381-52.229-52.227C418.489,144.96,441.87,121.577,470.717,121.577 M470.717,113.577    c-33.209,0-60.229,27.018-60.229,60.227s27.021,60.227,60.229,60.227c33.211,0,60.229-27.018,60.229-60.227    S503.927,113.577,470.717,113.577L470.717,113.577z"
   id="path25" />
		<text
   title="second, s"
   transform="matrix(1 0 0 1 457.5789 187.0598)"
   fill="#FFFFFF"
   font-family="'DejaVu Sans'"
   font-size="51.2"
   id="text27">s</text>

	</g>
	<g
   id="g29">
		<path
   title="candela, cd"
   fill="#D9C042"
   d="M203.013,563.876c-31.004,0-56.228-25.224-56.228-56.228c0-31.003,25.224-56.229,56.228-56.229    c31.002,0,56.225,25.227,56.225,56.229C259.238,538.653,234.015,563.876,203.013,563.876L203.013,563.876z"
   id="path31" />
		<path
   fill="#FFFFFF"
   d="M203.012,455.42c28.843,0,52.227,23.388,52.227,52.229s-23.384,52.228-52.227,52.228    c-28.846,0-52.228-23.385-52.228-52.228S174.168,455.42,203.012,455.42 M203.012,447.42c-33.209,0-60.228,27.021-60.228,60.229    s27.019,60.228,60.228,60.228s60.227-27.019,60.227-60.228S236.221,447.42,203.012,447.42L203.012,447.42z"
   id="path33" />
		<text
   title="candela, cd"
   transform="matrix(1 0 0 1 172.2869 525.9036)"
   fill="#FFFFFF"
   font-family="'DejaVu Sans'"
   font-size="51.2"
   id="text35">cd</text>

	</g>
	<g
   id="g37">
		<path
   title="kilogram, kg"
   fill="#EB6D6D"
   d="M395.99,563.876c-31.002,0-56.227-25.224-56.227-56.228c0-31.003,25.225-56.229,56.227-56.229    s56.229,25.227,56.229,56.229C452.219,538.653,426.99,563.876,395.99,563.876L395.99,563.876z"
   id="path39" />
		<path
   fill="#FFFFFF"
   d="M395.99,455.42c28.842,0,52.229,23.385,52.229,52.229c0,28.842-23.389,52.228-52.229,52.228    c-28.846,0-52.227-23.386-52.227-52.228C343.765,478.801,367.146,455.42,395.99,455.42 M395.99,447.42    c-33.209,0-60.227,27.021-60.227,60.229s27.018,60.228,60.227,60.228s60.229-27.019,60.229-60.228S429.198,447.42,395.99,447.42    L395.99,447.42z"
   id="path41" />
		<text
   title="kilogram, kg"
   transform="matrix(1 0 0 1 364.0916 525.9036)"
   fill="#FFFFFF"
   font-family="'DejaVu Sans'"
   font-size="51.2"
   id="text43">kg</text>

	</g>
	<g
   id="g45">
		<path
   title="metre, m"
   fill="#6D8CEB"
   d="M513.003,415.302c-31.011,0-56.229-25.227-56.229-56.229s25.223-56.227,56.229-56.227    c31.006,0,56.229,25.223,56.229,56.227C569.228,390.08,544.009,415.302,513.003,415.302L513.003,415.302z"
   id="path47" />
		<path
   fill="#FFFFFF"
   d="M513.004,306.848c28.842,0,52.227,23.383,52.227,52.227c0,28.847-23.385,52.228-52.227,52.228    c-28.849,0-52.229-23.381-52.229-52.228C460.776,330.229,484.156,306.848,513.004,306.848 M513.004,298.847    c-33.209,0-60.229,27.016-60.229,60.226c0,33.209,27.021,60.229,60.229,60.229s60.227-27.02,60.227-60.229    S546.213,298.847,513.004,298.847L513.004,298.847z"
   id="path49" />
		<text
   title="metre, m"
   transform="matrix(1 0 0 1 488.7273 372.3303)"
   fill="#FFFFFF"
   font-family="'DejaVu Sans'"
   font-size="51.2"
   id="text51">m</text>

	</g>
	<g
   id="g53">
		<path
   title="mole, mol"
   fill="#75D1AB"
   d="M86.001,415.298c-31.003,0-56.229-25.227-56.229-56.229c0-31.002,25.229-56.226,56.229-56.226    s56.227,25.224,56.227,56.226C142.226,390.075,117.005,415.298,86.001,415.298L86.001,415.298z"
   id="path55" />
		<path
   fill="#FFFFFF"
   d="M86,306.846c28.845,0,52.227,23.383,52.227,52.229c0,28.845-23.382,52.225-52.227,52.225    c-28.849,0-52.229-23.381-52.229-52.227C33.772,330.229,57.156,306.846,86,306.846 M86,298.845    c-33.209,0-60.229,27.019-60.229,60.228S52.792,419.298,86,419.298s60.227-27.018,60.227-60.227S119.209,298.845,86,298.845    L86,298.845z"
   id="path57" />
		<text
   title="mole, mol"
   transform="matrix(1 0 0 1 37.3235 375.1926)"
   fill="#FFFFFF"
   font-family="'DejaVu Sans'"
   font-size="51.2"
   id="text59">mol</text>

	</g>
</g>

</svg>